<?xml version="1.0" encoding="utf-8"?>
<!-- Generator: Adobe Illustrator 27.0.1, SVG Export Plug-In . SVG Version: 6.00 Build 0)  -->
<svg version="1.1" id="Layer_1" xmlns="http://www.w3.org/2000/svg" xmlns:xlink="http://www.w3.org/1999/xlink" x="0px" y="0px"
	 viewBox="0 0 16 16" style="enable-background:new 0 0 16 16;" xml:space="preserve">
<style type="text/css">
	.st0{fill:#F0F6FC;}
</style>
<g>
	<path class="st0" d="M9.4,9.9C9.5,10,9.6,10,9.6,10s0.2,0,0.2-0.1c0.2-0.1,3.8-2.5,5.1-5c0.3-0.5,0.5-1.1,0.5-1.7
		c0-1.7-1.4-3.2-3.2-3.2c-1.3,0-2.2,1.1-2.7,1.6C9.2,1.1,8.2,0.1,6.9,0.1c-1.7,0-3.2,1.4-3.2,3.2c0,0.6,0.2,1.2,0.5,1.7
		C5.6,7.4,9.2,9.8,9.4,9.9L9.4,9.9z"/>
	<path class="st0" d="M15.1,9.8c-0.8-0.5-1.5,0.2-1.8,0.5c-0.5,0.6-1.2,1.1-1.5,1.4c-0.1-0.1-0.3-0.1-0.5-0.1c-1-0.1-2.6-0.2-3-0.5
		c-0.4-0.3-0.8-0.5-1.1-0.7C6.3,9.8,5.6,9.3,3.9,9.3c-0.5,0-0.9,0.1-1.4,0.3C2.1,9.7,1.7,9.8,1.2,9.8c-0.5,0-1,0.4-1,1l0,2.5
		c0,0.5,0.4,1,1,1c0.9,0,2.4,0,2.7,0.2c0.6,0.2,2,1,2.4,1.3c0,0,0,0,0,0c0.2,0.1,0.4,0.1,0.6,0.1h4.6c0.5,0,1-0.4,1.2-0.8
		c0.6-1,2.8-3.7,2.8-3.7c0,0,0-0.1,0.1-0.1C15.8,10.8,15.6,10.1,15.1,9.8L15.1,9.8z M7.8,13.2c-0.3,0-0.9-0.5-1.3-0.8
		c-0.1-0.1-0.2-0.2-0.3-0.2c-0.2-0.2-0.5-0.3-0.7-0.4c-0.2-0.1-0.5,0-0.6,0.2c-0.1,0.2,0,0.5,0.2,0.6C5.3,12.8,5.7,13,6,13.2
		c0.7,0.5,1.3,0.9,1.9,0.9c0,0,0,0,0,0l3.4-0.2c0.6,0,1.2-0.5,1.2-1.2c0-0.1,0-0.3-0.1-0.4c0.4-0.3,1-0.9,1.6-1.4
		c0.4-0.4,0.5-0.4,0.7-0.4c0.1,0.1,0.2,0.2,0.2,0.3c-0.3,0.4-2.2,2.8-2.8,3.8c-0.1,0.1-0.3,0.3-0.4,0.3l0,0H6.9c0,0-0.1,0-0.1,0
		c-0.2-0.1-1.8-1.1-2.6-1.4c-0.6-0.2-2.6-0.2-3-0.2c0,0-0.1,0-0.1-0.1l0-2.5c0-0.1,0-0.1,0.1-0.1c0.6,0,1.2-0.2,1.6-0.3
		c0.4-0.1,0.7-0.2,1.1-0.2c1.4,0,1.9,0.4,2.8,1c0.3,0.2,0.7,0.5,1.2,0.8C8,12,8.4,12.2,8.9,12.2c0.9,0.2,2.1,0.3,2.4,0.3
		c0,0,0,0,0,0c0.1,0,0.3,0.1,0.3,0.3c0,0.1-0.1,0.3-0.3,0.3c0,0,0,0,0,0"/>
</g>
</svg>
