<?xml version="1.0" encoding="utf-8"?>
<!-- Generator: Adobe Illustrator 27.0.1, SVG Export Plug-In . SVG Version: 6.00 Build 0)  -->
<svg version="1.1" id="Layer_1" xmlns="http://www.w3.org/2000/svg" xmlns:xlink="http://www.w3.org/1999/xlink" x="0px" y="0px"
	 viewBox="0 0 36 36" style="enable-background:new 0 0 36 36;" xml:space="preserve">
<style type="text/css">
	.st0{fill:#F0F6FC;}
</style>
<g>
	<path class="st0" d="M21.3,22.3c0.2,0.1,0.4,0.2,0.6,0.2s0.4-0.1,0.6-0.2C22.8,22.1,31,16.6,34,11c0.7-1.2,1.1-2.5,1.1-3.9
		C35.2,3.2,32,0,28,0c-2.9,0-5,2.4-6.1,3.7C20.8,2.4,18.7,0,15.8,0c-3.9,0-7.2,3.2-7.2,7.2C8.6,8.5,9,9.9,9.7,11
		C12.8,16.6,21,22.1,21.3,22.3L21.3,22.3z M15.8,2.1c2,0,3.8,2,4.7,3.1c0.6,0.7,0.9,1,1.5,1c0.6,0,0.9-0.4,1.5-1
		C24.3,4,26,2.1,28,2.1c2.8,0,5.1,2.3,5.1,5.1c0,1-0.3,2-0.8,2.8c0,0,0,0,0,0.1c-2.3,4.3-8.5,8.9-10.4,10.2
		c-1.9-1.3-8-5.9-10.4-10.2c0,0,0,0,0-0.1c-0.5-0.8-0.8-1.8-0.8-2.8C10.6,4.3,12.9,2.1,15.8,2.1L15.8,2.1z"/>
	<path class="st0" d="M34.2,22.1c-1.9-1.1-3.4,0.5-4,1.1c-1.2,1.3-2.7,2.6-3.5,3.2c-0.3-0.1-0.7-0.2-1.1-0.2c-2.3-0.1-6-0.5-6.9-1.1
		c-1-0.6-1.8-1.2-2.5-1.7c-2-1.4-3.6-2.6-7.5-2.6c-1.1,0-2.1,0.3-3.1,0.6c-1,0.3-1.9,0.6-3,0.6c-1.2,0-2.2,1-2.2,2.2l0,5.7
		c0,1.2,1,2.2,2.2,2.2c2.1,0,5.5,0.1,6.2,0.4c1.3,0.4,4.4,2.3,5.5,3c0,0,0,0,0,0c0.4,0.2,0.8,0.3,1.3,0.3h10.4c1.1,0,2.3-1,2.7-1.7
		c1.4-2.3,6.2-8.4,6.3-8.5c0-0.1,0.1-0.1,0.1-0.2C35.9,24.3,35.5,22.8,34.2,22.1L34.2,22.1z M26.1,33.9H15.8c-0.1,0-0.2,0-0.3-0.1
		c-0.4-0.2-4.2-2.6-5.9-3.2c-1.3-0.4-5.9-0.5-6.9-0.5c-0.1,0-0.2-0.1-0.2-0.2l0-5.7c0-0.1,0.1-0.2,0.2-0.2c1.4,0,2.6-0.4,3.7-0.7
		c0.9-0.3,1.7-0.5,2.5-0.5c3.2,0,4.4,0.8,6.3,2.2c0.7,0.5,1.6,1.1,2.6,1.8c0.5,0.3,1.4,0.6,2.4,0.8c2.1,0.4,4.7,0.6,5.4,0.6
		c0,0,0,0,0.1,0c0.3,0,0.6,0.3,0.6,0.6c0,0.3-0.3,0.6-0.6,0.6c0,0,0,0-0.1,0l-7.7,0.4c-0.6,0-2.1-1.1-3-1.7
		c-0.2-0.2-0.5-0.3-0.7-0.5c-0.5-0.4-1-0.7-1.5-0.9c-0.5-0.3-1.1,0-1.4,0.5c-0.3,0.5,0,1.1,0.5,1.4c0.5,0.3,1.2,0.8,1.9,1.3
		c1.5,1.1,3,2.1,4.2,2.1c0,0,0,0,0.1,0l7.7-0.4c1.5,0,2.6-1.2,2.6-2.7c0-0.3-0.1-0.6-0.2-0.9c0.8-0.7,2.3-1.9,3.6-3.3
		c0.9-0.9,1.2-1,1.5-0.8c0.3,0.2,0.5,0.5,0.4,0.8c-0.7,0.9-5,6.4-6.4,8.6C27,33.5,26.4,33.9,26.1,33.9L26.1,33.9z"/>
</g>
</svg>
